<svg width="16" height="16" viewBox="0 0 16 16" fill="none" xmlns="http://www.w3.org/2000/svg">
<path fill-rule="evenodd" clip-rule="evenodd" d="M3.75 1C3.05933 1 2.5 1.56 2.5 2.25V13.75C2.5 14.44 3.06 15 3.75 15H12.25C12.94 15 13.5 14.44 13.5 13.75V8.5C13.5 7.83696 13.2366 7.20107 12.7678 6.73223C12.2989 6.26339 11.663 6 11 6H9.75C9.41848 6 9.10054 5.8683 8.86612 5.63388C8.6317 5.39946 8.5 5.08152 8.5 4.75V3.5C8.5 2.83696 8.23661 2.20107 7.76777 1.73223C7.29893 1.26339 6.66304 1 6 1H3.75ZM5 10C5 9.86739 5.05268 9.74022 5.14645 9.64645C5.24021 9.55268 5.36739 9.5 5.5 9.5H10.5C10.6326 9.5 10.7598 9.55268 10.8536 9.64645C10.9473 9.74022 11 9.86739 11 10C11 10.1326 10.9473 10.2598 10.8536 10.3536C10.7598 10.4473 10.6326 10.5 10.5 10.5H5.5C5.36739 10.5 5.24021 10.4473 5.14645 10.3536C5.05268 10.2598 5 10.1326 5 10ZM5.5 11.5C5.36739 11.5 5.24021 11.5527 5.14645 11.6464C5.05268 11.7402 5 11.8674 5 12C5 12.1326 5.05268 12.2598 5.14645 12.3536C5.24021 12.4473 5.36739 12.5 5.5 12.5H8C8.13261 12.5 8.25979 12.4473 8.35355 12.3536C8.44732 12.2598 8.5 12.1326 8.5 12C8.5 11.8674 8.44732 11.7402 8.35355 11.6464C8.25979 11.5527 8.13261 11.5 8 11.5H5.5Z" fill="white"/>
<path d="M8.64722 1.21045C9.19823 1.84576 9.50105 2.65881 9.49988 3.49978V4.74978C9.49988 4.88778 9.61188 4.99978 9.74988 4.99978H10.9999C11.8409 4.99862 12.6539 5.30144 13.2892 5.85245C12.9958 4.73698 12.4114 3.71944 11.5958 2.90386C10.7802 2.08827 9.76268 1.50388 8.64722 1.21045Z" fill="white"/>
</svg>
