<svg width="16" height="16" viewBox="0 0 16 16" fill="none" xmlns="http://www.w3.org/2000/svg">
<path d="M3.33337 6.66634H4.66671C6.00004 6.66634 6.66671 5.99967 6.66671 4.66634V3.33301C6.66671 1.99967 6.00004 1.33301 4.66671 1.33301H3.33337C2.00004 1.33301 1.33337 1.99967 1.33337 3.33301V4.66634C1.33337 5.99967 2.00004 6.66634 3.33337 6.66634Z" fill="white" stroke="white" stroke-width="1.5" stroke-miterlimit="10" stroke-linecap="round" stroke-linejoin="round"/>
<path d="M11.3334 6.66634H12.6667C14 6.66634 14.6667 5.99967 14.6667 4.66634V3.33301C14.6667 1.99967 14 1.33301 12.6667 1.33301H11.3334C10 1.33301 9.33337 1.99967 9.33337 3.33301V4.66634C9.33337 5.99967 10 6.66634 11.3334 6.66634Z" fill="white" stroke="white" stroke-width="1.5" stroke-miterlimit="10" stroke-linecap="round" stroke-linejoin="round"/>
<path d="M11.3334 14.6663H12.6667C14 14.6663 14.6667 13.9997 14.6667 12.6663V11.333C14.6667 9.99967 14 9.33301 12.6667 9.33301H11.3334C10 9.33301 9.33337 9.99967 9.33337 11.333V12.6663C9.33337 13.9997 10 14.6663 11.3334 14.6663Z" fill="white" stroke="white" stroke-width="1.5" stroke-miterlimit="10" stroke-linecap="round" stroke-linejoin="round"/>
<path d="M3.33337 14.6663H4.66671C6.00004 14.6663 6.66671 13.9997 6.66671 12.6663V11.333C6.66671 9.99967 6.00004 9.33301 4.66671 9.33301H3.33337C2.00004 9.33301 1.33337 9.99967 1.33337 11.333V12.6663C1.33337 13.9997 2.00004 14.6663 3.33337 14.6663Z" fill="white" stroke="white" stroke-width="1.5" stroke-miterlimit="10" stroke-linecap="round" stroke-linejoin="round"/>
</svg>
