<svg width="16" height="16" viewBox="0 0 16 16" fill="none" xmlns="http://www.w3.org/2000/svg">
<path fill-rule="evenodd" clip-rule="evenodd" d="M9 2C9 1.73478 8.89464 1.48043 8.70711 1.29289C8.51957 1.10536 8.26522 1 8 1C7.73479 1 7.48043 1.10536 7.29289 1.29289C7.10536 1.48043 7 1.73478 7 2V8.66667C7 8.93188 7.10536 9.18624 7.29289 9.37377C7.48043 9.56131 7.73479 9.66667 8 9.66667C8.26522 9.66667 8.51957 9.56131 8.70711 9.37377C8.89464 9.18624 9 8.93188 9 8.66667V2ZM5.236 3.83333C5.34544 3.76062 5.43948 3.66707 5.51276 3.55802C5.58604 3.44897 5.63712 3.32655 5.66309 3.19775C5.68906 3.06896 5.68941 2.93631 5.66411 2.80738C5.63882 2.67845 5.58838 2.55577 5.51567 2.44633C5.44296 2.3369 5.34941 2.24286 5.24036 2.16958C5.1313 2.0963 5.00888 2.04521 4.88009 2.01924C4.75129 1.99327 4.61865 1.99293 4.48972 2.01822C4.36079 2.04352 4.2381 2.09396 4.12867 2.16667C3.16607 2.80507 2.37656 3.67192 1.83062 4.68981C1.28468 5.7077 0.999316 6.84495 1 8C1 11.866 4.134 15 8 15C11.866 15 15 11.866 15 8C15 5.564 13.7553 3.42 11.8713 2.16667C11.6503 2.01991 11.3801 1.96697 11.12 2.01948C10.86 2.07199 10.6314 2.22565 10.4847 2.44667C10.3379 2.66768 10.285 2.93794 10.3375 3.19799C10.39 3.45804 10.5437 3.68658 10.7647 3.83333C11.6597 4.42709 12.3398 5.2933 12.7042 6.30371C13.0685 7.31411 13.0979 8.415 12.7878 9.44336C12.4777 10.4717 11.8447 11.3729 10.9825 12.0135C10.1203 12.654 9.07477 12.9999 8.00067 12.9999C6.92657 12.9999 5.88102 12.654 5.01883 12.0135C4.15664 11.3729 3.52364 10.4717 3.21356 9.44336C2.90347 8.415 2.93279 7.31411 3.29717 6.30371C3.66154 5.2933 4.34094 4.42709 5.236 3.83333Z" fill="white"/>
</svg>
